<svg width="304" height="97" viewBox="0 0 304 97" fill="none" xmlns="http://www.w3.org/2000/svg">
<rect width="304" height="97" rx="15" fill="white"/>
<path d="M12.2727 33.5682V25.4545H50.5V33.5682H36.25V72H26.5227V33.5682H12.2727ZM95.7386 41.75H85.7841C85.6023 40.4621 85.2311 39.3182 84.6705 38.3182C84.1099 37.303 83.3902 36.4394 82.5114 35.7273C81.6326 35.0151 80.6174 34.4697 79.4659 34.0909C78.3295 33.7121 77.0947 33.5227 75.7614 33.5227C73.3523 33.5227 71.2538 34.1212 69.4659 35.3182C67.678 36.5 66.2917 38.2273 65.3068 40.5C64.322 42.7576 63.8295 45.5 63.8295 48.7273C63.8295 52.0455 64.322 54.8333 65.3068 57.0909C66.3068 59.3485 67.7008 61.053 69.4886 62.2045C71.2765 63.3561 73.3447 63.9318 75.6932 63.9318C77.0114 63.9318 78.2311 63.7576 79.3523 63.4091C80.4886 63.0606 81.4962 62.553 82.375 61.8864C83.2538 61.2045 83.9811 60.3788 84.5568 59.4091C85.1477 58.4394 85.5568 57.3333 85.7841 56.0909L95.7386 56.1364C95.4811 58.2727 94.8371 60.3333 93.8068 62.3182C92.7917 64.2879 91.4205 66.053 89.6932 67.6136C87.9811 69.1591 85.9356 70.3864 83.5568 71.2955C81.1932 72.1894 78.5189 72.6364 75.5341 72.6364C71.3826 72.6364 67.6705 71.697 64.3977 69.8182C61.1402 67.9394 58.5644 65.2197 56.6705 61.6591C54.7917 58.0985 53.8523 53.7879 53.8523 48.7273C53.8523 43.6515 54.8068 39.3333 56.7159 35.7727C58.625 32.2121 61.2159 29.5 64.4886 27.6364C67.7614 25.7576 71.4432 24.8182 75.5341 24.8182C78.2311 24.8182 80.7311 25.197 83.0341 25.9545C85.3523 26.7121 87.4053 27.8182 89.1932 29.2727C90.9811 30.7121 92.4356 32.4773 93.5568 34.5682C94.6932 36.6591 95.4205 39.053 95.7386 41.75ZM102.795 72V25.4545H121.432C124.856 25.4545 127.712 25.9621 130 26.9773C132.288 27.9924 134.008 29.4015 135.159 31.2045C136.311 32.9924 136.886 35.053 136.886 37.3864C136.886 39.2045 136.523 40.803 135.795 42.1818C135.068 43.5455 134.068 44.6667 132.795 45.5455C131.538 46.4091 130.098 47.0227 128.477 47.3864V47.8409C130.25 47.9167 131.909 48.4167 133.455 49.3409C135.015 50.2652 136.28 51.5606 137.25 53.2273C138.22 54.8788 138.705 56.8485 138.705 59.1364C138.705 61.6061 138.091 63.8106 136.864 65.75C135.652 67.6742 133.856 69.197 131.477 70.3182C129.098 71.4394 126.167 72 122.682 72H102.795ZM112.636 63.9545H120.659C123.402 63.9545 125.402 63.4318 126.659 62.3864C127.917 61.3258 128.545 59.9167 128.545 58.1591C128.545 56.8712 128.235 55.7348 127.614 54.75C126.992 53.7652 126.106 52.9924 124.955 52.4318C123.818 51.8712 122.462 51.5909 120.886 51.5909H112.636V63.9545ZM112.636 44.9318H119.932C121.28 44.9318 122.477 44.697 123.523 44.2273C124.583 43.7424 125.417 43.0606 126.023 42.1818C126.644 41.303 126.955 40.25 126.955 39.0227C126.955 37.3409 126.356 35.9848 125.159 34.9545C123.977 33.9242 122.295 33.4091 120.114 33.4091H112.636V44.9318Z" fill="#3772FF"/>
<path d="M154.949 25.4545V72H145.108V25.4545H154.949ZM201.977 25.4545V72H193.477L173.227 42.7045H172.886V72H163.045V25.4545H171.682L191.773 54.7273H192.182V25.4545H201.977ZM210.108 72V25.4545H240.926V33.5682H219.949V44.6591H238.881V52.7727H219.949V72H210.108ZM290.318 48.7273C290.318 53.803 289.356 58.1212 287.432 61.6818C285.523 65.2424 282.917 67.9621 279.614 69.8409C276.326 71.7045 272.629 72.6364 268.523 72.6364C264.386 72.6364 260.674 71.697 257.386 69.8182C254.098 67.9394 251.5 65.2197 249.591 61.6591C247.682 58.0985 246.727 53.7879 246.727 48.7273C246.727 43.6515 247.682 39.3333 249.591 35.7727C251.5 32.2121 254.098 29.5 257.386 27.6364C260.674 25.7576 264.386 24.8182 268.523 24.8182C272.629 24.8182 276.326 25.7576 279.614 27.6364C282.917 29.5 285.523 32.2121 287.432 35.7727C289.356 39.3333 290.318 43.6515 290.318 48.7273ZM280.341 48.7273C280.341 45.4394 279.848 42.6667 278.864 40.4091C277.894 38.1515 276.523 36.4394 274.75 35.2727C272.977 34.1061 270.902 33.5227 268.523 33.5227C266.144 33.5227 264.068 34.1061 262.295 35.2727C260.523 36.4394 259.144 38.1515 258.159 40.4091C257.189 42.6667 256.705 45.4394 256.705 48.7273C256.705 52.0152 257.189 54.7879 258.159 57.0455C259.144 59.303 260.523 61.0152 262.295 62.1818C264.068 63.3485 266.144 63.9318 268.523 63.9318C270.902 63.9318 272.977 63.3485 274.75 62.1818C276.523 61.0152 277.894 59.303 278.864 57.0455C279.848 54.7879 280.341 52.0152 280.341 48.7273Z" fill="#F75C03"/>
</svg>
